<svg width="25" height="29" viewBox="0 0 25 29" fill="none" xmlns="http://www.w3.org/2000/svg">
<path d="M3.25682 13.6113C5.47232 10.8159 9.6111 5.57957 12.0966 2.43337C12.7724 1.5773 14.1207 2.0755 14.1113 3.17716L14.0148 14.434C14.0096 15.077 13.497 15.5936 12.8707 15.5883L4.12661 15.5094C3.17565 15.5006 2.65616 14.3674 3.25682 13.6104V13.6113Z" fill="url(#paint0_linear_1_2191)"/>
<g opacity="0.99" filter="url(#filter0_d_1_2191)">
<path d="M20.7373 12.4726C18.4996 15.2487 14.3181 20.45 11.8069 23.5743C11.1243 24.4242 9.78028 23.9146 9.79822 22.8129L9.98619 11.5569C9.9973 10.914 10.5134 10.4018 11.1397 10.4123L19.8829 10.5658C20.8338 10.5825 21.3439 11.7201 20.7373 12.4718V12.4726Z" fill="url(#paint1_linear_1_2191)"/>
</g>
<defs>
<filter id="filter0_d_1_2191" x="3.79804" y="5.41214" width="21.202" height="23.5879" filterUnits="userSpaceOnUse" color-interpolation-filters="sRGB">
<feFlood flood-opacity="0" result="BackgroundImageFix"/>
<feColorMatrix in="SourceAlpha" type="matrix" values="0 0 0 0 0 0 0 0 0 0 0 0 0 0 0 0 0 0 127 0" result="hardAlpha"/>
<feOffset dx="-1"/>
<feGaussianBlur stdDeviation="2.5"/>
<feComposite in2="hardAlpha" operator="out"/>
<feColorMatrix type="matrix" values="0 0 0 0 0 0 0 0 0 0 0 0 0 0 0 0 0 0 0.25 0"/>
<feBlend mode="normal" in2="BackgroundImageFix" result="effect1_dropShadow_1_2191"/>
<feBlend mode="normal" in="SourceGraphic" in2="effect1_dropShadow_1_2191" result="shape"/>
</filter>
<linearGradient id="paint0_linear_1_2191" x1="21" y1="8.96839" x2="-2.4924" y2="8.56139" gradientUnits="userSpaceOnUse">
<stop stop-color="#E85C90"/>
<stop offset="1" stop-color="#FBB39D"/>
</linearGradient>
<linearGradient id="paint1_linear_1_2191" x1="30.5" y1="17.5" x2="7.50824" y2="17.0648" gradientUnits="userSpaceOnUse">
<stop stop-color="#58EFEC"/>
<stop offset="0.5" stop-color="#E85C90"/>
<stop offset="1" stop-color="#FBB39D"/>
</linearGradient>
</defs>
</svg>
